<svg xmlns="http://www.w3.org/2000/svg" xmlns:xlink="http://www.w3.org/1999/xlink" width="450" zoomAndPan="magnify" viewBox="0 0 337.5 60" height="80" preserveAspectRatio="xMidYMid meet" version="1.0"><defs><g/></defs><g fill="#ffffff" fill-opacity="1"><g transform="translate(37.861318, 29.949236)"><g><path d="M 12.96875 0.359375 C 10.570312 0.359375 8.503906 -0.171875 6.765625 -1.234375 C 5.023438 -2.296875 3.695312 -3.757812 2.78125 -5.625 C 1.875 -7.5 1.421875 -9.625 1.421875 -12 C 1.421875 -14.71875 1.957031 -17.050781 3.03125 -19 C 4.113281 -20.957031 5.609375 -22.4375 7.515625 -23.4375 C 9.421875 -24.445312 11.59375 -24.953125 14.03125 -24.953125 C 16.257812 -24.953125 18.835938 -24.609375 21.765625 -23.921875 L 21.46875 -18.171875 L 19.109375 -18.171875 L 18.3125 -22.171875 C 18 -22.410156 17.472656 -22.640625 16.734375 -22.859375 C 15.992188 -23.085938 15.003906 -23.203125 13.765625 -23.203125 C 12.140625 -23.203125 10.707031 -22.800781 9.46875 -22 C 8.226562 -21.207031 7.257812 -20.019531 6.5625 -18.4375 C 5.863281 -16.863281 5.515625 -14.960938 5.515625 -12.734375 C 5.515625 -10.671875 5.796875 -8.785156 6.359375 -7.078125 C 6.929688 -5.367188 7.796875 -4 8.953125 -2.96875 C 10.117188 -1.9375 11.546875 -1.421875 13.234375 -1.421875 C 14.296875 -1.421875 15.300781 -1.546875 16.25 -1.796875 C 17.207031 -2.054688 17.9375 -2.398438 18.4375 -2.828125 L 18.4375 -10.234375 L 14.25 -10.5625 L 14.25 -12.53125 L 23.96875 -12.53125 L 23.96875 -10.5625 L 22.03125 -10.265625 L 22.03125 -1.328125 C 21.539062 -1.304688 20.734375 -1.117188 19.609375 -0.765625 C 18.453125 -0.410156 17.363281 -0.132812 16.34375 0.0625 C 15.332031 0.257812 14.207031 0.359375 12.96875 0.359375 Z M 12.96875 0.359375 "/></g></g></g><g fill="#ffffff" fill-opacity="1"><g transform="translate(62.449811, 29.949236)"><g><path d="M 1.5 -4.984375 C 1.5 -7.066406 2.539062 -8.597656 4.625 -9.578125 C 6.707031 -10.566406 9.34375 -11.097656 12.53125 -11.171875 L 12.53125 -12.09375 C 12.53125 -13.132812 12.414062 -13.953125 12.1875 -14.546875 C 11.96875 -15.148438 11.585938 -15.585938 11.046875 -15.859375 C 10.503906 -16.140625 9.734375 -16.28125 8.734375 -16.28125 C 7.609375 -16.28125 6.597656 -16.117188 5.703125 -15.796875 C 4.804688 -15.484375 3.914062 -15.09375 3.03125 -14.625 L 2.1875 -16.34375 C 2.476562 -16.59375 3.007812 -16.914062 3.78125 -17.3125 C 4.5625 -17.707031 5.460938 -18.0625 6.484375 -18.375 C 7.503906 -18.6875 8.519531 -18.84375 9.53125 -18.84375 C 11.101562 -18.84375 12.347656 -18.625 13.265625 -18.1875 C 14.191406 -17.757812 14.851562 -17.066406 15.25 -16.109375 C 15.65625 -15.160156 15.859375 -13.890625 15.859375 -12.296875 L 15.859375 -1.625 L 17.8125 -1.625 L 17.8125 -0.171875 C 17.375 -0.0546875 16.816406 0.0507812 16.140625 0.15625 C 15.460938 0.269531 14.867188 0.328125 14.359375 0.328125 C 13.734375 0.328125 13.3125 0.234375 13.09375 0.046875 C 12.875 -0.140625 12.765625 -0.554688 12.765625 -1.203125 L 12.765625 -2.296875 C 12.097656 -1.628906 11.28125 -1.019531 10.3125 -0.46875 C 9.351562 0.0820312 8.265625 0.359375 7.046875 0.359375 C 5.453125 0.359375 4.128906 -0.0976562 3.078125 -1.015625 C 2.023438 -1.929688 1.5 -3.253906 1.5 -4.984375 Z M 8.46875 -1.890625 C 9.050781 -1.890625 9.71875 -2.066406 10.46875 -2.421875 C 11.21875 -2.773438 11.90625 -3.195312 12.53125 -3.6875 L 12.53125 -9.40625 C 10.113281 -9.40625 8.289062 -9.03125 7.0625 -8.28125 C 5.832031 -7.539062 5.21875 -6.578125 5.21875 -5.390625 C 5.21875 -4.191406 5.507812 -3.304688 6.09375 -2.734375 C 6.6875 -2.171875 7.476562 -1.890625 8.46875 -1.890625 Z M 8.46875 -1.890625 "/></g></g></g><g fill="#ffffff" fill-opacity="1"><g transform="translate(81.090531, 29.949236)"><g><path d="M -0.0625 -26.59375 L 5.25 -27.21875 L 5.3125 -27.21875 L 6.078125 -26.71875 L 6.078125 -16.71875 C 6.742188 -17.363281 7.535156 -17.894531 8.453125 -18.3125 C 9.378906 -18.726562 10.40625 -18.9375 11.53125 -18.9375 C 12.863281 -18.9375 14.078125 -18.613281 15.171875 -17.96875 C 16.265625 -17.332031 17.140625 -16.335938 17.796875 -14.984375 C 18.453125 -13.640625 18.78125 -11.9375 18.78125 -9.875 C 18.78125 -7.96875 18.382812 -6.238281 17.59375 -4.6875 C 16.8125 -3.132812 15.6875 -1.90625 14.21875 -1 C 12.757812 -0.09375 11.066406 0.359375 9.140625 0.359375 C 7.609375 0.359375 6.210938 0.210938 4.953125 -0.078125 C 3.691406 -0.378906 2.925781 -0.648438 2.65625 -0.890625 L 2.65625 -24.828125 L -0.0625 -25.1875 Z M 10.171875 -16.578125 C 9.328125 -16.578125 8.546875 -16.382812 7.828125 -16 C 7.109375 -15.613281 6.523438 -15.175781 6.078125 -14.6875 L 6.078125 -2.453125 C 6.210938 -2.148438 6.59375 -1.898438 7.21875 -1.703125 C 7.851562 -1.515625 8.570312 -1.421875 9.375 -1.421875 C 11.082031 -1.421875 12.457031 -2.109375 13.5 -3.484375 C 14.539062 -4.859375 15.0625 -6.863281 15.0625 -9.5 C 15.0625 -11.875 14.601562 -13.644531 13.6875 -14.8125 C 12.78125 -15.988281 11.609375 -16.578125 10.171875 -16.578125 Z M 10.171875 -16.578125 "/></g></g></g><g fill="#ffffff" fill-opacity="1"><g transform="translate(101.259738, 29.949236)"><g><path d="M 1.5625 -1.625 L 4.046875 -1.828125 L 4.046875 -15.890625 L 1.65625 -16.484375 L 1.65625 -18.28125 L 6.25 -18.875 L 6.3125 -18.875 L 7.046875 -18.28125 L 7.046875 -17.6875 L 6.953125 -15.09375 L 7.046875 -15.09375 C 7.265625 -15.46875 7.660156 -15.953125 8.234375 -16.546875 C 8.816406 -17.148438 9.5625 -17.695312 10.46875 -18.1875 C 11.375 -18.6875 12.359375 -18.9375 13.421875 -18.9375 C 13.867188 -18.9375 14.234375 -18.882812 14.515625 -18.78125 L 14.515625 -15.0625 C 14.367188 -15.164062 14.125 -15.265625 13.78125 -15.359375 C 13.4375 -15.460938 13.050781 -15.515625 12.625 -15.515625 C 10.789062 -15.515625 9.085938 -14.953125 7.515625 -13.828125 L 7.515625 -1.859375 L 11.734375 -1.59375 L 11.734375 0 L 1.5625 0 Z M 1.5625 -1.625 "/></g></g></g><g fill="#ffffff" fill-opacity="1"><g transform="translate(116.478025, 29.949236)"><g><path d="M 5.421875 -21.765625 C 4.710938 -21.765625 4.179688 -21.960938 3.828125 -22.359375 C 3.472656 -22.765625 3.296875 -23.273438 3.296875 -23.890625 C 3.296875 -24.597656 3.507812 -25.1875 3.9375 -25.65625 C 4.375 -26.125 4.96875 -26.359375 5.71875 -26.359375 C 6.46875 -26.359375 7.019531 -26.15625 7.375 -25.75 C 7.726562 -25.351562 7.90625 -24.847656 7.90625 -24.234375 C 7.90625 -23.472656 7.6875 -22.867188 7.25 -22.421875 C 6.820312 -21.984375 6.222656 -21.765625 5.453125 -21.765625 Z M 4.09375 -15.890625 L 1.5625 -16.484375 L 1.5625 -18.25 L 6.71875 -18.875 L 6.78125 -18.875 L 7.546875 -18.28125 L 7.546875 -1.890625 L 10.203125 -1.625 L 10.203125 0 L 1.390625 0 L 1.390625 -1.625 L 4.09375 -1.921875 Z M 4.09375 -15.890625 "/></g></g></g><g fill="#ffffff" fill-opacity="1"><g transform="translate(127.542859, 29.949236)"><g><path d="M 9.671875 0.359375 C 6.992188 0.359375 4.945312 -0.515625 3.53125 -2.265625 C 2.125 -4.015625 1.421875 -6.347656 1.421875 -9.265625 C 1.421875 -11.191406 1.785156 -12.882812 2.515625 -14.34375 C 3.253906 -15.8125 4.28125 -16.941406 5.59375 -17.734375 C 6.914062 -18.535156 8.421875 -18.9375 10.109375 -18.9375 C 12.160156 -18.9375 13.753906 -18.363281 14.890625 -17.21875 C 16.035156 -16.082031 16.644531 -14.453125 16.71875 -12.328125 C 16.71875 -10.972656 16.640625 -9.941406 16.484375 -9.234375 L 5.046875 -9.234375 C 5.097656 -7.046875 5.609375 -5.28125 6.578125 -3.9375 C 7.554688 -2.59375 8.941406 -1.921875 10.734375 -1.921875 C 11.617188 -1.921875 12.539062 -2.082031 13.5 -2.40625 C 14.46875 -2.726562 15.21875 -3.113281 15.75 -3.5625 L 16.390625 -2.09375 C 15.742188 -1.425781 14.785156 -0.847656 13.515625 -0.359375 C 12.253906 0.117188 10.972656 0.359375 9.671875 0.359375 Z M 13.0625 -11 C 13.125 -11.46875 13.15625 -11.941406 13.15625 -12.421875 C 13.132812 -13.867188 12.828125 -15.003906 12.234375 -15.828125 C 11.648438 -16.660156 10.726562 -17.078125 9.46875 -17.078125 C 8.1875 -17.078125 7.160156 -16.613281 6.390625 -15.6875 C 5.628906 -14.757812 5.191406 -13.195312 5.078125 -11 Z M 13.0625 -11 "/></g></g></g><g fill="#ffffff" fill-opacity="1"><g transform="translate(145.618735, 29.949236)"><g><path d="M 3.921875 -24.796875 L 1.234375 -25.15625 L 1.234375 -26.59375 L 6.578125 -27.21875 L 6.640625 -27.21875 L 7.375 -26.71875 L 7.375 -1.890625 L 10.203125 -1.625 L 10.203125 0 L 1.234375 0 L 1.234375 -1.625 L 3.921875 -1.921875 Z M 3.921875 -24.796875 "/></g></g></g><g fill="#ffffff" fill-opacity="1"><g transform="translate(156.683569, 29.949236)"><g><path d="M 1.5 -4.984375 C 1.5 -7.066406 2.539062 -8.597656 4.625 -9.578125 C 6.707031 -10.566406 9.34375 -11.097656 12.53125 -11.171875 L 12.53125 -12.09375 C 12.53125 -13.132812 12.414062 -13.953125 12.1875 -14.546875 C 11.96875 -15.148438 11.585938 -15.585938 11.046875 -15.859375 C 10.503906 -16.140625 9.734375 -16.28125 8.734375 -16.28125 C 7.609375 -16.28125 6.597656 -16.117188 5.703125 -15.796875 C 4.804688 -15.484375 3.914062 -15.09375 3.03125 -14.625 L 2.1875 -16.34375 C 2.476562 -16.59375 3.007812 -16.914062 3.78125 -17.3125 C 4.5625 -17.707031 5.460938 -18.0625 6.484375 -18.375 C 7.503906 -18.6875 8.519531 -18.84375 9.53125 -18.84375 C 11.101562 -18.84375 12.347656 -18.625 13.265625 -18.1875 C 14.191406 -17.757812 14.851562 -17.066406 15.25 -16.109375 C 15.65625 -15.160156 15.859375 -13.890625 15.859375 -12.296875 L 15.859375 -1.625 L 17.8125 -1.625 L 17.8125 -0.171875 C 17.375 -0.0546875 16.816406 0.0507812 16.140625 0.15625 C 15.460938 0.269531 14.867188 0.328125 14.359375 0.328125 C 13.734375 0.328125 13.3125 0.234375 13.09375 0.046875 C 12.875 -0.140625 12.765625 -0.554688 12.765625 -1.203125 L 12.765625 -2.296875 C 12.097656 -1.628906 11.28125 -1.019531 10.3125 -0.46875 C 9.351562 0.0820312 8.265625 0.359375 7.046875 0.359375 C 5.453125 0.359375 4.128906 -0.0976562 3.078125 -1.015625 C 2.023438 -1.929688 1.5 -3.253906 1.5 -4.984375 Z M 8.46875 -1.890625 C 9.050781 -1.890625 9.71875 -2.066406 10.46875 -2.421875 C 11.21875 -2.773438 11.90625 -3.195312 12.53125 -3.6875 L 12.53125 -9.40625 C 10.113281 -9.40625 8.289062 -9.03125 7.0625 -8.28125 C 5.832031 -7.539062 5.21875 -6.578125 5.21875 -5.390625 C 5.21875 -4.191406 5.507812 -3.304688 6.09375 -2.734375 C 6.6875 -2.171875 7.476562 -1.890625 8.46875 -1.890625 Z M 8.46875 -1.890625 "/></g></g></g><g fill="#ffffff" fill-opacity="1"><g transform="translate(175.32429, 29.949236)"><g/></g></g><g fill="#ffffff" fill-opacity="1"><g transform="translate(183.19925, 29.949236)"><g><path d="M 5.453125 -22.625 L 1.828125 -23.03125 L 1.828125 -24.6875 L 10.640625 -24.6875 L 15.328125 -9.734375 L 16.421875 -5.515625 L 17.421875 -9.734375 L 22.0625 -24.6875 L 30.8125 -24.6875 L 30.8125 -23.03125 L 27.15625 -22.625 L 29.8125 -2 L 32.703125 -1.625 L 32.703125 0 L 23.125 0 L 23.125 -1.625 L 26.15625 -1.953125 L 24.65625 -16.890625 L 23.96875 -23.296875 L 22.5625 -18.515625 L 17.015625 -1.125 L 14.859375 -1.125 L 9.46875 -17.046875 L 7.515625 -23.328125 L 6.90625 -16.890625 L 5.578125 -1.953125 L 8.875 -1.625 L 8.875 0 L 0.203125 0 L 0.203125 -1.625 L 3.03125 -1.953125 Z M 5.453125 -22.625 "/></g></g></g><g fill="#ffffff" fill-opacity="1"><g transform="translate(216.094647, 29.949236)"><g><path d="M 5.421875 -21.765625 C 4.710938 -21.765625 4.179688 -21.960938 3.828125 -22.359375 C 3.472656 -22.765625 3.296875 -23.273438 3.296875 -23.890625 C 3.296875 -24.597656 3.507812 -25.1875 3.9375 -25.65625 C 4.375 -26.125 4.96875 -26.359375 5.71875 -26.359375 C 6.46875 -26.359375 7.019531 -26.15625 7.375 -25.75 C 7.726562 -25.351562 7.90625 -24.847656 7.90625 -24.234375 C 7.90625 -23.472656 7.6875 -22.867188 7.25 -22.421875 C 6.820312 -21.984375 6.222656 -21.765625 5.453125 -21.765625 Z M 4.09375 -15.890625 L 1.5625 -16.484375 L 1.5625 -18.25 L 6.71875 -18.875 L 6.78125 -18.875 L 7.546875 -18.28125 L 7.546875 -1.890625 L 10.203125 -1.625 L 10.203125 0 L 1.390625 0 L 1.390625 -1.625 L 4.09375 -1.921875 Z M 4.09375 -15.890625 "/></g></g></g><g fill="#ffffff" fill-opacity="1"><g transform="translate(227.159481, 29.949236)"><g><path d="M 3.921875 -24.796875 L 1.234375 -25.15625 L 1.234375 -26.59375 L 6.578125 -27.21875 L 6.640625 -27.21875 L 7.375 -26.71875 L 7.375 -1.890625 L 10.203125 -1.625 L 10.203125 0 L 1.234375 0 L 1.234375 -1.625 L 3.921875 -1.921875 Z M 3.921875 -24.796875 "/></g></g></g><g fill="#ffffff" fill-opacity="1"><g transform="translate(238.224315, 29.949236)"><g><path d="M 1.5 -4.984375 C 1.5 -7.066406 2.539062 -8.597656 4.625 -9.578125 C 6.707031 -10.566406 9.34375 -11.097656 12.53125 -11.171875 L 12.53125 -12.09375 C 12.53125 -13.132812 12.414062 -13.953125 12.1875 -14.546875 C 11.96875 -15.148438 11.585938 -15.585938 11.046875 -15.859375 C 10.503906 -16.140625 9.734375 -16.28125 8.734375 -16.28125 C 7.609375 -16.28125 6.597656 -16.117188 5.703125 -15.796875 C 4.804688 -15.484375 3.914062 -15.09375 3.03125 -14.625 L 2.1875 -16.34375 C 2.476562 -16.59375 3.007812 -16.914062 3.78125 -17.3125 C 4.5625 -17.707031 5.460938 -18.0625 6.484375 -18.375 C 7.503906 -18.6875 8.519531 -18.84375 9.53125 -18.84375 C 11.101562 -18.84375 12.347656 -18.625 13.265625 -18.1875 C 14.191406 -17.757812 14.851562 -17.066406 15.25 -16.109375 C 15.65625 -15.160156 15.859375 -13.890625 15.859375 -12.296875 L 15.859375 -1.625 L 17.8125 -1.625 L 17.8125 -0.171875 C 17.375 -0.0546875 16.816406 0.0507812 16.140625 0.15625 C 15.460938 0.269531 14.867188 0.328125 14.359375 0.328125 C 13.734375 0.328125 13.3125 0.234375 13.09375 0.046875 C 12.875 -0.140625 12.765625 -0.554688 12.765625 -1.203125 L 12.765625 -2.296875 C 12.097656 -1.628906 11.28125 -1.019531 10.3125 -0.46875 C 9.351562 0.0820312 8.265625 0.359375 7.046875 0.359375 C 5.453125 0.359375 4.128906 -0.0976562 3.078125 -1.015625 C 2.023438 -1.929688 1.5 -3.253906 1.5 -4.984375 Z M 8.46875 -1.890625 C 9.050781 -1.890625 9.71875 -2.066406 10.46875 -2.421875 C 11.21875 -2.773438 11.90625 -3.195312 12.53125 -3.6875 L 12.53125 -9.40625 C 10.113281 -9.40625 8.289062 -9.03125 7.0625 -8.28125 C 5.832031 -7.539062 5.21875 -6.578125 5.21875 -5.390625 C 5.21875 -4.191406 5.507812 -3.304688 6.09375 -2.734375 C 6.6875 -2.171875 7.476562 -1.890625 8.46875 -1.890625 Z M 8.46875 -1.890625 "/></g></g></g><g fill="#ffffff" fill-opacity="1"><g transform="translate(256.865036, 29.949236)"><g><path d="M 3.484375 -15.890625 L 1.09375 -16.484375 L 1.09375 -18.28125 L 5.84375 -18.875 L 5.953125 -18.875 L 6.640625 -18.28125 L 6.640625 -16.890625 L 6.609375 -16.078125 C 7.410156 -16.796875 8.460938 -17.441406 9.765625 -18.015625 C 11.078125 -18.585938 12.332031 -18.875 13.53125 -18.875 C 14.925781 -18.875 16.003906 -18.609375 16.765625 -18.078125 C 17.523438 -17.546875 18.0625 -16.726562 18.375 -15.625 C 18.6875 -14.53125 18.84375 -13.054688 18.84375 -11.203125 L 18.84375 -1.890625 L 21.171875 -1.65625 L 21.171875 0 L 13.296875 0 L 13.296875 -1.625 L 15.359375 -1.890625 L 15.359375 -11.234375 C 15.359375 -12.535156 15.269531 -13.554688 15.09375 -14.296875 C 14.914062 -15.046875 14.582031 -15.601562 14.09375 -15.96875 C 13.601562 -16.332031 12.894531 -16.515625 11.96875 -16.515625 C 11.164062 -16.515625 10.3125 -16.316406 9.40625 -15.921875 C 8.5 -15.523438 7.691406 -15.054688 6.984375 -14.515625 L 6.984375 -1.921875 L 9.234375 -1.625 L 9.234375 0 L 1.390625 0 L 1.390625 -1.625 L 3.484375 -1.921875 Z M 3.484375 -15.890625 "/></g></g></g><g fill="#ffffff" fill-opacity="1"><g transform="translate(278.928222, 29.949236)"><g><path d="M 1.5 -9.265625 C 1.5 -11.265625 1.90625 -12.992188 2.71875 -14.453125 C 3.539062 -15.921875 4.617188 -17.035156 5.953125 -17.796875 C 7.296875 -18.554688 8.734375 -18.9375 10.265625 -18.9375 C 13.054688 -18.9375 15.15625 -18.050781 16.5625 -16.28125 C 17.96875 -14.507812 18.671875 -12.1875 18.671875 -9.3125 C 18.671875 -7.289062 18.257812 -5.546875 17.4375 -4.078125 C 16.625 -2.617188 15.546875 -1.515625 14.203125 -0.765625 C 12.867188 -0.015625 11.4375 0.359375 9.90625 0.359375 C 7.113281 0.359375 5.015625 -0.523438 3.609375 -2.296875 C 2.203125 -4.066406 1.5 -6.390625 1.5 -9.265625 Z M 10.109375 -1.53125 C 11.628906 -1.53125 12.800781 -2.160156 13.625 -3.421875 C 14.445312 -4.679688 14.859375 -6.554688 14.859375 -9.046875 C 14.859375 -11.503906 14.476562 -13.453125 13.71875 -14.890625 C 12.96875 -16.328125 11.765625 -17.046875 10.109375 -17.046875 C 8.578125 -17.046875 7.394531 -16.414062 6.5625 -15.15625 C 5.726562 -13.894531 5.3125 -12.019531 5.3125 -9.53125 C 5.3125 -7.070312 5.695312 -5.125 6.46875 -3.6875 C 7.25 -2.25 8.460938 -1.53125 10.109375 -1.53125 Z M 10.109375 -1.53125 "/></g></g></g><g fill="#ffffff" fill-opacity="1"><g transform="translate(94.806247, 51.504863)"><g><path d="M 2.375 -1.375 C 2.488281 -1.207031 2.734375 -1.050781 3.109375 -0.90625 C 3.484375 -0.769531 3.878906 -0.703125 4.296875 -0.703125 C 4.953125 -0.703125 5.429688 -0.828125 5.734375 -1.078125 C 6.046875 -1.335938 6.203125 -1.691406 6.203125 -2.140625 C 6.203125 -2.453125 6.101562 -2.722656 5.90625 -2.953125 C 5.71875 -3.179688 5.445312 -3.382812 5.09375 -3.5625 C 4.75 -3.738281 4.25 -3.953125 3.59375 -4.203125 C 2.707031 -4.535156 2.054688 -4.9375 1.640625 -5.40625 C 1.234375 -5.875 1.03125 -6.488281 1.03125 -7.25 C 1.03125 -7.75 1.179688 -8.1875 1.484375 -8.5625 C 1.796875 -8.945312 2.21875 -9.242188 2.75 -9.453125 C 3.28125 -9.671875 3.875 -9.78125 4.53125 -9.78125 C 5.0625 -9.78125 5.523438 -9.738281 5.921875 -9.65625 C 6.316406 -9.582031 6.632812 -9.503906 6.875 -9.421875 C 7.125 -9.335938 7.285156 -9.285156 7.359375 -9.265625 L 7.359375 -7.125 L 6.3125 -7.125 L 5.96875 -8.40625 C 5.894531 -8.539062 5.707031 -8.65625 5.40625 -8.75 C 5.113281 -8.851562 4.785156 -8.90625 4.421875 -8.90625 C 3.898438 -8.90625 3.476562 -8.789062 3.15625 -8.5625 C 2.84375 -8.332031 2.6875 -8.019531 2.6875 -7.625 C 2.6875 -7.28125 2.769531 -6.992188 2.9375 -6.765625 C 3.101562 -6.546875 3.3125 -6.363281 3.5625 -6.21875 C 3.820312 -6.082031 4.171875 -5.925781 4.609375 -5.75 L 4.953125 -5.609375 C 5.597656 -5.359375 6.117188 -5.113281 6.515625 -4.875 C 6.921875 -4.644531 7.257812 -4.34375 7.53125 -3.96875 C 7.800781 -3.601562 7.9375 -3.148438 7.9375 -2.609375 C 7.9375 -1.753906 7.601562 -1.070312 6.9375 -0.5625 C 6.28125 -0.0625 5.375 0.1875 4.21875 0.1875 C 3.65625 0.1875 3.066406 0.109375 2.453125 -0.046875 C 1.835938 -0.203125 1.335938 -0.359375 0.953125 -0.515625 L 0.953125 -2.71875 L 2.0625 -2.71875 Z M 2.375 -1.375 "/></g></g></g><g fill="#ffffff" fill-opacity="1"><g transform="translate(103.51802, 51.504863)"><g><path d="M 0.78125 -2.59375 C 0.78125 -3.664062 1.316406 -4.457031 2.390625 -4.96875 C 3.472656 -5.488281 4.84375 -5.765625 6.5 -5.796875 L 6.5 -6.28125 C 6.5 -6.820312 6.441406 -7.242188 6.328125 -7.546875 C 6.210938 -7.859375 6.015625 -8.085938 5.734375 -8.234375 C 5.453125 -8.378906 5.050781 -8.453125 4.53125 -8.453125 C 3.945312 -8.453125 3.421875 -8.367188 2.953125 -8.203125 C 2.492188 -8.035156 2.03125 -7.832031 1.5625 -7.59375 L 1.140625 -8.484375 C 1.285156 -8.609375 1.554688 -8.773438 1.953125 -8.984375 C 2.359375 -9.191406 2.828125 -9.375 3.359375 -9.53125 C 3.890625 -9.695312 4.421875 -9.78125 4.953125 -9.78125 C 5.765625 -9.78125 6.410156 -9.664062 6.890625 -9.4375 C 7.367188 -9.21875 7.710938 -8.859375 7.921875 -8.359375 C 8.128906 -7.867188 8.234375 -7.207031 8.234375 -6.375 L 8.234375 -0.84375 L 9.25 -0.84375 L 9.25 -0.09375 C 9.019531 -0.03125 8.726562 0.0234375 8.375 0.078125 C 8.019531 0.140625 7.710938 0.171875 7.453125 0.171875 C 7.128906 0.171875 6.910156 0.117188 6.796875 0.015625 C 6.679688 -0.078125 6.625 -0.289062 6.625 -0.625 L 6.625 -1.1875 C 6.28125 -0.84375 5.859375 -0.523438 5.359375 -0.234375 C 4.859375 0.046875 4.289062 0.1875 3.65625 0.1875 C 2.832031 0.1875 2.144531 -0.046875 1.59375 -0.515625 C 1.050781 -0.992188 0.78125 -1.6875 0.78125 -2.59375 Z M 4.40625 -0.984375 C 4.695312 -0.984375 5.035156 -1.070312 5.421875 -1.25 C 5.816406 -1.4375 6.175781 -1.660156 6.5 -1.921875 L 6.5 -4.875 C 5.25 -4.875 4.300781 -4.679688 3.65625 -4.296875 C 3.019531 -3.910156 2.703125 -3.410156 2.703125 -2.796875 C 2.703125 -2.171875 2.851562 -1.710938 3.15625 -1.421875 C 3.46875 -1.128906 3.882812 -0.984375 4.40625 -0.984375 Z M 4.40625 -0.984375 "/></g></g></g><g fill="#ffffff" fill-opacity="1"><g transform="translate(113.195845, 51.504863)"><g><path d="M 8.625 0.15625 C 8.300781 0.15625 8.0625 0.09375 7.90625 -0.03125 C 7.75 -0.15625 7.671875 -0.363281 7.671875 -0.65625 L 7.671875 -1.234375 C 7.296875 -0.859375 6.820312 -0.523438 6.25 -0.234375 C 5.6875 0.046875 5.113281 0.1875 4.53125 0.1875 C 3.46875 0.1875 2.710938 -0.0976562 2.265625 -0.671875 C 1.816406 -1.242188 1.59375 -2.191406 1.59375 -3.515625 L 1.59375 -8.515625 L 0.625 -8.796875 L 0.625 -9.5625 L 3.03125 -9.78125 L 3.046875 -9.78125 L 3.375 -9.578125 L 3.375 -3.65625 C 3.375 -2.988281 3.421875 -2.46875 3.515625 -2.09375 C 3.617188 -1.71875 3.796875 -1.441406 4.046875 -1.265625 C 4.296875 -1.085938 4.65625 -1 5.125 -1 C 5.582031 -1 6.007812 -1.097656 6.40625 -1.296875 C 6.8125 -1.492188 7.164062 -1.722656 7.46875 -1.984375 L 7.46875 -8.515625 L 6.234375 -8.796875 L 6.234375 -9.5625 L 8.84375 -9.78125 L 8.859375 -9.78125 L 9.265625 -9.578125 L 9.265625 -0.875 L 10.296875 -0.875 L 10.28125 -0.109375 C 9.957031 -0.0234375 9.675781 0.0351562 9.4375 0.078125 C 9.207031 0.128906 8.9375 0.15625 8.625 0.15625 Z M 3.890625 -11.828125 L 6.65625 -15.265625 L 7.953125 -14.15625 C 7.710938 -13.769531 7.195312 -13.238281 6.40625 -12.5625 C 5.613281 -11.882812 5 -11.453125 4.5625 -11.265625 Z M 3.890625 -11.828125 "/></g></g></g><g fill="#ffffff" fill-opacity="1"><g transform="translate(124.098493, 51.504863)"><g><path d="M 4.5 0.1875 C 3.8125 0.1875 3.179688 0.015625 2.609375 -0.328125 C 2.035156 -0.671875 1.578125 -1.195312 1.234375 -1.90625 C 0.890625 -2.625 0.71875 -3.503906 0.71875 -4.546875 C 0.71875 -5.523438 0.921875 -6.414062 1.328125 -7.21875 C 1.734375 -8.03125 2.3125 -8.664062 3.0625 -9.125 C 3.8125 -9.59375 4.703125 -9.828125 5.734375 -9.828125 C 6.316406 -9.828125 6.847656 -9.765625 7.328125 -9.640625 L 7.328125 -12.875 L 5.578125 -13.078125 L 5.578125 -13.8125 L 8.671875 -14.125 L 8.734375 -14.125 L 9.109375 -13.859375 L 9.109375 -0.875 L 10.109375 -0.875 L 10.109375 -0.09375 C 9.742188 -0.0078125 9.425781 0.0507812 9.15625 0.09375 C 8.882812 0.144531 8.597656 0.171875 8.296875 0.171875 C 7.992188 0.171875 7.78125 0.117188 7.65625 0.015625 C 7.53125 -0.0859375 7.46875 -0.304688 7.46875 -0.640625 L 7.46875 -1.1875 C 7.144531 -0.800781 6.722656 -0.472656 6.203125 -0.203125 C 5.679688 0.0546875 5.113281 0.1875 4.5 0.1875 Z M 5.1875 -1.03125 C 5.632812 -1.03125 6.050781 -1.128906 6.4375 -1.328125 C 6.832031 -1.535156 7.128906 -1.769531 7.328125 -2.03125 L 7.328125 -8.34375 C 7.234375 -8.488281 7.015625 -8.613281 6.671875 -8.71875 C 6.335938 -8.832031 5.984375 -8.890625 5.609375 -8.890625 C 4.710938 -8.890625 3.992188 -8.546875 3.453125 -7.859375 C 2.921875 -7.171875 2.65625 -6.113281 2.65625 -4.6875 C 2.65625 -3.445312 2.890625 -2.523438 3.359375 -1.921875 C 3.835938 -1.328125 4.445312 -1.03125 5.1875 -1.03125 Z M 5.1875 -1.03125 "/></g></g></g><g fill="#ffffff" fill-opacity="1"><g transform="translate(134.811385, 51.504863)"><g><path d="M 5.015625 0.1875 C 3.628906 0.1875 2.566406 -0.265625 1.828125 -1.171875 C 1.097656 -2.078125 0.734375 -3.289062 0.734375 -4.8125 C 0.734375 -5.8125 0.921875 -6.691406 1.296875 -7.453125 C 1.679688 -8.210938 2.21875 -8.796875 2.90625 -9.203125 C 3.59375 -9.617188 4.375 -9.828125 5.25 -9.828125 C 6.3125 -9.828125 7.140625 -9.53125 7.734375 -8.9375 C 8.328125 -8.351562 8.640625 -7.507812 8.671875 -6.40625 C 8.671875 -5.695312 8.632812 -5.160156 8.5625 -4.796875 L 2.625 -4.796875 C 2.644531 -3.660156 2.90625 -2.742188 3.40625 -2.046875 C 3.914062 -1.347656 4.640625 -1 5.578125 -1 C 6.035156 -1 6.515625 -1.082031 7.015625 -1.25 C 7.515625 -1.414062 7.898438 -1.613281 8.171875 -1.84375 L 8.5 -1.09375 C 8.164062 -0.738281 7.671875 -0.4375 7.015625 -0.1875 C 6.359375 0.0625 5.691406 0.1875 5.015625 0.1875 Z M 6.78125 -5.703125 C 6.8125 -5.953125 6.828125 -6.203125 6.828125 -6.453125 C 6.816406 -7.203125 6.660156 -7.789062 6.359375 -8.21875 C 6.054688 -8.644531 5.578125 -8.859375 4.921875 -8.859375 C 4.253906 -8.859375 3.71875 -8.617188 3.3125 -8.140625 C 2.914062 -7.660156 2.691406 -6.847656 2.640625 -5.703125 Z M 6.78125 -5.703125 "/></g></g></g><g fill="#ffffff" fill-opacity="1"><g transform="translate(144.195957, 51.504863)"><g/></g></g><g fill="#ffffff" fill-opacity="1"><g transform="translate(148.284452, 51.504863)"><g><path d="M 2.8125 -11.296875 C 2.445312 -11.296875 2.171875 -11.398438 1.984375 -11.609375 C 1.796875 -11.816406 1.703125 -12.082031 1.703125 -12.40625 C 1.703125 -12.769531 1.8125 -13.070312 2.03125 -13.3125 C 2.257812 -13.550781 2.570312 -13.671875 2.96875 -13.671875 C 3.351562 -13.671875 3.640625 -13.566406 3.828125 -13.359375 C 4.015625 -13.160156 4.109375 -12.898438 4.109375 -12.578125 C 4.109375 -12.179688 3.992188 -11.867188 3.765625 -11.640625 C 3.546875 -11.410156 3.234375 -11.296875 2.828125 -11.296875 Z M 2.125 -8.25 L 0.8125 -8.5625 L 0.8125 -9.46875 L 3.484375 -9.796875 L 3.515625 -9.796875 L 3.921875 -9.484375 L 3.921875 -0.984375 L 5.296875 -0.84375 L 5.296875 0 L 0.71875 0 L 0.71875 -0.84375 L 2.125 -1 Z M 2.125 -8.25 "/></g></g></g><g fill="#ffffff" fill-opacity="1"><g transform="translate(154.029054, 51.504863)"><g><path d="M 1.8125 -8.25 L 0.5625 -8.5625 L 0.5625 -9.484375 L 3.03125 -9.796875 L 3.09375 -9.796875 L 3.453125 -9.484375 L 3.453125 -8.765625 L 3.4375 -8.34375 C 3.84375 -8.71875 4.382812 -9.050781 5.0625 -9.34375 C 5.75 -9.644531 6.398438 -9.796875 7.015625 -9.796875 C 7.742188 -9.796875 8.304688 -9.65625 8.703125 -9.375 C 9.097656 -9.101562 9.375 -8.679688 9.53125 -8.109375 C 9.695312 -7.546875 9.78125 -6.78125 9.78125 -5.8125 L 9.78125 -0.984375 L 10.984375 -0.859375 L 10.984375 0 L 6.90625 0 L 6.90625 -0.84375 L 7.96875 -0.984375 L 7.96875 -5.828125 C 7.96875 -6.503906 7.921875 -7.035156 7.828125 -7.421875 C 7.734375 -7.804688 7.5625 -8.09375 7.3125 -8.28125 C 7.0625 -8.476562 6.691406 -8.578125 6.203125 -8.578125 C 5.796875 -8.578125 5.351562 -8.472656 4.875 -8.265625 C 4.40625 -8.054688 3.988281 -7.8125 3.625 -7.53125 L 3.625 -1 L 4.796875 -0.84375 L 4.796875 0 L 0.71875 0 L 0.71875 -0.84375 L 1.8125 -1 Z M 1.8125 -8.25 "/></g></g></g><g fill="#ffffff" fill-opacity="1"><g transform="translate(165.483743, 51.504863)"><g><path d="M 3.71875 0.171875 C 3.070312 0.171875 2.585938 0.0234375 2.265625 -0.265625 C 1.941406 -0.566406 1.78125 -1.082031 1.78125 -1.8125 L 1.78125 -8.4375 L 0.53125 -8.4375 L 0.53125 -9.21875 C 0.59375 -9.226562 0.753906 -9.265625 1.015625 -9.328125 C 1.285156 -9.398438 1.460938 -9.460938 1.546875 -9.515625 C 1.734375 -9.617188 1.878906 -9.828125 1.984375 -10.140625 C 2.078125 -10.359375 2.1875 -10.707031 2.3125 -11.1875 C 2.4375 -11.675781 2.507812 -11.96875 2.53125 -12.0625 L 3.546875 -12.0625 L 3.59375 -9.578125 L 6.46875 -9.578125 L 6.46875 -8.4375 L 3.59375 -8.4375 L 3.59375 -3.140625 C 3.59375 -2.484375 3.609375 -2.019531 3.640625 -1.75 C 3.679688 -1.488281 3.769531 -1.316406 3.90625 -1.234375 C 4.039062 -1.160156 4.269531 -1.125 4.59375 -1.125 C 4.894531 -1.125 5.234375 -1.160156 5.609375 -1.234375 C 5.984375 -1.316406 6.273438 -1.40625 6.484375 -1.5 L 6.75 -0.71875 C 6.46875 -0.507812 6.019531 -0.304688 5.40625 -0.109375 C 4.789062 0.078125 4.226562 0.171875 3.71875 0.171875 Z M 3.71875 0.171875 "/></g></g></g><g fill="#ffffff" fill-opacity="1"><g transform="translate(172.504909, 51.504863)"><g><path d="M 5.015625 0.1875 C 3.628906 0.1875 2.566406 -0.265625 1.828125 -1.171875 C 1.097656 -2.078125 0.734375 -3.289062 0.734375 -4.8125 C 0.734375 -5.8125 0.921875 -6.691406 1.296875 -7.453125 C 1.679688 -8.210938 2.21875 -8.796875 2.90625 -9.203125 C 3.59375 -9.617188 4.375 -9.828125 5.25 -9.828125 C 6.3125 -9.828125 7.140625 -9.53125 7.734375 -8.9375 C 8.328125 -8.351562 8.640625 -7.507812 8.671875 -6.40625 C 8.671875 -5.695312 8.632812 -5.160156 8.5625 -4.796875 L 2.625 -4.796875 C 2.644531 -3.660156 2.90625 -2.742188 3.40625 -2.046875 C 3.914062 -1.347656 4.640625 -1 5.578125 -1 C 6.035156 -1 6.515625 -1.082031 7.015625 -1.25 C 7.515625 -1.414062 7.898438 -1.613281 8.171875 -1.84375 L 8.5 -1.09375 C 8.164062 -0.738281 7.671875 -0.4375 7.015625 -0.1875 C 6.359375 0.0625 5.691406 0.1875 5.015625 0.1875 Z M 6.78125 -5.703125 C 6.8125 -5.953125 6.828125 -6.203125 6.828125 -6.453125 C 6.816406 -7.203125 6.660156 -7.789062 6.359375 -8.21875 C 6.054688 -8.644531 5.578125 -8.859375 4.921875 -8.859375 C 4.253906 -8.859375 3.71875 -8.617188 3.3125 -8.140625 C 2.914062 -7.660156 2.691406 -6.847656 2.640625 -5.703125 Z M 6.78125 -5.703125 "/></g></g></g><g fill="#ffffff" fill-opacity="1"><g transform="translate(181.88948, 51.504863)"><g><path d="M 4.90625 4.65625 C 3.425781 4.65625 2.351562 4.421875 1.6875 3.953125 C 1.03125 3.492188 0.703125 2.851562 0.703125 2.03125 C 0.703125 1.53125 0.859375 1.066406 1.171875 0.640625 C 1.492188 0.210938 1.875 -0.109375 2.3125 -0.328125 C 1.78125 -0.628906 1.515625 -1.113281 1.515625 -1.78125 C 1.515625 -2.1875 1.632812 -2.570312 1.875 -2.9375 C 2.125 -3.3125 2.441406 -3.597656 2.828125 -3.796875 C 2.253906 -4.046875 1.8125 -4.40625 1.5 -4.875 C 1.195312 -5.351562 1.046875 -5.914062 1.046875 -6.5625 C 1.046875 -7.226562 1.234375 -7.804688 1.609375 -8.296875 C 1.984375 -8.785156 2.476562 -9.160156 3.09375 -9.421875 C 3.707031 -9.691406 4.359375 -9.828125 5.046875 -9.828125 C 6.210938 -9.828125 7.125 -9.585938 7.78125 -9.109375 C 7.945312 -9.273438 8.207031 -9.4375 8.5625 -9.59375 C 8.925781 -9.757812 9.3125 -9.84375 9.71875 -9.84375 L 10.296875 -9.84375 L 10.296875 -8.328125 L 8.40625 -8.328125 C 8.675781 -7.898438 8.8125 -7.40625 8.8125 -6.84375 C 8.8125 -6.164062 8.640625 -5.566406 8.296875 -5.046875 C 7.960938 -4.523438 7.492188 -4.117188 6.890625 -3.828125 C 6.285156 -3.535156 5.601562 -3.390625 4.84375 -3.390625 C 4.351562 -3.390625 3.910156 -3.441406 3.515625 -3.546875 C 3.359375 -3.390625 3.226562 -3.210938 3.125 -3.015625 C 3.019531 -2.816406 2.96875 -2.628906 2.96875 -2.453125 C 2.96875 -2.035156 3.101562 -1.75 3.375 -1.59375 C 3.65625 -1.4375 4.148438 -1.359375 4.859375 -1.359375 L 6.8125 -1.359375 C 7.925781 -1.359375 8.753906 -1.144531 9.296875 -0.71875 C 9.835938 -0.300781 10.109375 0.300781 10.109375 1.09375 C 10.109375 1.738281 9.867188 2.332031 9.390625 2.875 C 8.921875 3.425781 8.285156 3.859375 7.484375 4.171875 C 6.691406 4.492188 5.832031 4.65625 4.90625 4.65625 Z M 5.015625 -4.34375 C 6.328125 -4.34375 6.984375 -5.117188 6.984375 -6.671875 C 6.984375 -7.441406 6.8125 -8.007812 6.46875 -8.375 C 6.132812 -8.738281 5.628906 -8.921875 4.953125 -8.921875 C 4.316406 -8.921875 3.8125 -8.742188 3.4375 -8.390625 C 3.070312 -8.035156 2.890625 -7.472656 2.890625 -6.703125 C 2.890625 -5.984375 3.066406 -5.410156 3.421875 -4.984375 C 3.773438 -4.554688 4.304688 -4.34375 5.015625 -4.34375 Z M 5.046875 3.65625 C 5.617188 3.65625 6.15625 3.570312 6.65625 3.40625 C 7.15625 3.238281 7.554688 2.988281 7.859375 2.65625 C 8.171875 2.332031 8.328125 1.953125 8.328125 1.515625 C 8.328125 0.992188 8.1875 0.613281 7.90625 0.375 C 7.632812 0.144531 7.101562 0.03125 6.3125 0.03125 L 4.28125 0.03125 C 3.820312 0.03125 3.457031 0.00390625 3.1875 -0.046875 C 2.71875 0.460938 2.484375 1.039062 2.484375 1.6875 C 2.484375 2.332031 2.675781 2.820312 3.0625 3.15625 C 3.457031 3.488281 4.117188 3.65625 5.046875 3.65625 Z M 5.046875 3.65625 "/></g></g></g><g fill="#ffffff" fill-opacity="1"><g transform="translate(192.36086, 51.504863)"><g><path d="M 0.8125 -0.84375 L 2.109375 -0.953125 L 2.109375 -8.25 L 0.859375 -8.5625 L 0.859375 -9.484375 L 3.25 -9.796875 L 3.28125 -9.796875 L 3.65625 -9.484375 L 3.65625 -9.171875 L 3.609375 -7.828125 L 3.65625 -7.828125 C 3.769531 -8.023438 3.972656 -8.28125 4.265625 -8.59375 C 4.566406 -8.90625 4.953125 -9.1875 5.421875 -9.4375 C 5.898438 -9.695312 6.414062 -9.828125 6.96875 -9.828125 C 7.195312 -9.828125 7.382812 -9.800781 7.53125 -9.75 L 7.53125 -7.8125 C 7.457031 -7.875 7.328125 -7.929688 7.140625 -7.984375 C 6.960938 -8.035156 6.769531 -8.0625 6.5625 -8.0625 C 5.601562 -8.0625 4.71875 -7.765625 3.90625 -7.171875 L 3.90625 -0.96875 L 6.09375 -0.828125 L 6.09375 0 L 0.8125 0 Z M 0.8125 -0.84375 "/></g></g></g><g fill="#ffffff" fill-opacity="1"><g transform="translate(200.261837, 51.504863)"><g><path d="M 0.78125 -2.59375 C 0.78125 -3.664062 1.316406 -4.457031 2.390625 -4.96875 C 3.472656 -5.488281 4.84375 -5.765625 6.5 -5.796875 L 6.5 -6.28125 C 6.5 -6.820312 6.441406 -7.242188 6.328125 -7.546875 C 6.210938 -7.859375 6.015625 -8.085938 5.734375 -8.234375 C 5.453125 -8.378906 5.050781 -8.453125 4.53125 -8.453125 C 3.945312 -8.453125 3.421875 -8.367188 2.953125 -8.203125 C 2.492188 -8.035156 2.03125 -7.832031 1.5625 -7.59375 L 1.140625 -8.484375 C 1.285156 -8.609375 1.554688 -8.773438 1.953125 -8.984375 C 2.359375 -9.191406 2.828125 -9.375 3.359375 -9.53125 C 3.890625 -9.695312 4.421875 -9.78125 4.953125 -9.78125 C 5.765625 -9.78125 6.410156 -9.664062 6.890625 -9.4375 C 7.367188 -9.21875 7.710938 -8.859375 7.921875 -8.359375 C 8.128906 -7.867188 8.234375 -7.207031 8.234375 -6.375 L 8.234375 -0.84375 L 9.25 -0.84375 L 9.25 -0.09375 C 9.019531 -0.03125 8.726562 0.0234375 8.375 0.078125 C 8.019531 0.140625 7.710938 0.171875 7.453125 0.171875 C 7.128906 0.171875 6.910156 0.117188 6.796875 0.015625 C 6.679688 -0.078125 6.625 -0.289062 6.625 -0.625 L 6.625 -1.1875 C 6.28125 -0.84375 5.859375 -0.523438 5.359375 -0.234375 C 4.859375 0.046875 4.289062 0.1875 3.65625 0.1875 C 2.832031 0.1875 2.144531 -0.046875 1.59375 -0.515625 C 1.050781 -0.992188 0.78125 -1.6875 0.78125 -2.59375 Z M 4.40625 -0.984375 C 4.695312 -0.984375 5.035156 -1.070312 5.421875 -1.25 C 5.816406 -1.4375 6.175781 -1.660156 6.5 -1.921875 L 6.5 -4.875 C 5.25 -4.875 4.300781 -4.679688 3.65625 -4.296875 C 3.019531 -3.910156 2.703125 -3.410156 2.703125 -2.796875 C 2.703125 -2.171875 2.851562 -1.710938 3.15625 -1.421875 C 3.46875 -1.128906 3.882812 -0.984375 4.40625 -0.984375 Z M 4.40625 -0.984375 "/></g></g></g><g fill="#ffffff" fill-opacity="1"><g transform="translate(209.939662, 51.504863)"><g><path d="M 3.71875 0.171875 C 3.070312 0.171875 2.585938 0.0234375 2.265625 -0.265625 C 1.941406 -0.566406 1.78125 -1.082031 1.78125 -1.8125 L 1.78125 -8.4375 L 0.53125 -8.4375 L 0.53125 -9.21875 C 0.59375 -9.226562 0.753906 -9.265625 1.015625 -9.328125 C 1.285156 -9.398438 1.460938 -9.460938 1.546875 -9.515625 C 1.734375 -9.617188 1.878906 -9.828125 1.984375 -10.140625 C 2.078125 -10.359375 2.1875 -10.707031 2.3125 -11.1875 C 2.4375 -11.675781 2.507812 -11.96875 2.53125 -12.0625 L 3.546875 -12.0625 L 3.59375 -9.578125 L 6.46875 -9.578125 L 6.46875 -8.4375 L 3.59375 -8.4375 L 3.59375 -3.140625 C 3.59375 -2.484375 3.609375 -2.019531 3.640625 -1.75 C 3.679688 -1.488281 3.769531 -1.316406 3.90625 -1.234375 C 4.039062 -1.160156 4.269531 -1.125 4.59375 -1.125 C 4.894531 -1.125 5.234375 -1.160156 5.609375 -1.234375 C 5.984375 -1.316406 6.273438 -1.40625 6.484375 -1.5 L 6.75 -0.71875 C 6.46875 -0.507812 6.019531 -0.304688 5.40625 -0.109375 C 4.789062 0.078125 4.226562 0.171875 3.71875 0.171875 Z M 3.71875 0.171875 "/></g></g></g><g fill="#ffffff" fill-opacity="1"><g transform="translate(216.960829, 51.504863)"><g><path d="M 2.8125 -11.296875 C 2.445312 -11.296875 2.171875 -11.398438 1.984375 -11.609375 C 1.796875 -11.816406 1.703125 -12.082031 1.703125 -12.40625 C 1.703125 -12.769531 1.8125 -13.070312 2.03125 -13.3125 C 2.257812 -13.550781 2.570312 -13.671875 2.96875 -13.671875 C 3.351562 -13.671875 3.640625 -13.566406 3.828125 -13.359375 C 4.015625 -13.160156 4.109375 -12.898438 4.109375 -12.578125 C 4.109375 -12.179688 3.992188 -11.867188 3.765625 -11.640625 C 3.546875 -11.410156 3.234375 -11.296875 2.828125 -11.296875 Z M 2.125 -8.25 L 0.8125 -8.5625 L 0.8125 -9.46875 L 3.484375 -9.796875 L 3.515625 -9.796875 L 3.921875 -9.484375 L 3.921875 -0.984375 L 5.296875 -0.84375 L 5.296875 0 L 0.71875 0 L 0.71875 -0.84375 L 2.125 -1 Z M 2.125 -8.25 "/></g></g></g><g fill="#ffffff" fill-opacity="1"><g transform="translate(222.705431, 51.504863)"><g><path d="M -0.015625 -9.578125 L 3.984375 -9.578125 L 3.984375 -8.765625 L 2.765625 -8.53125 L 4.5 -3.578125 L 5.234375 -1.375 L 5.84375 -3.5 L 7.59375 -8.53125 L 6.421875 -8.765625 L 6.421875 -9.578125 L 9.921875 -9.578125 L 9.921875 -8.765625 L 9.015625 -8.53125 L 5.6875 0.140625 L 4.21875 0.140625 L 0.765625 -8.53125 L -0.015625 -8.765625 Z M -0.015625 -9.578125 "/></g></g></g><g fill="#ffffff" fill-opacity="1"><g transform="translate(232.504013, 51.504863)"><g><path d="M 0.78125 -2.59375 C 0.78125 -3.664062 1.316406 -4.457031 2.390625 -4.96875 C 3.472656 -5.488281 4.84375 -5.765625 6.5 -5.796875 L 6.5 -6.28125 C 6.5 -6.820312 6.441406 -7.242188 6.328125 -7.546875 C 6.210938 -7.859375 6.015625 -8.085938 5.734375 -8.234375 C 5.453125 -8.378906 5.050781 -8.453125 4.53125 -8.453125 C 3.945312 -8.453125 3.421875 -8.367188 2.953125 -8.203125 C 2.492188 -8.035156 2.03125 -7.832031 1.5625 -7.59375 L 1.140625 -8.484375 C 1.285156 -8.609375 1.554688 -8.773438 1.953125 -8.984375 C 2.359375 -9.191406 2.828125 -9.375 3.359375 -9.53125 C 3.890625 -9.695312 4.421875 -9.78125 4.953125 -9.78125 C 5.765625 -9.78125 6.410156 -9.664062 6.890625 -9.4375 C 7.367188 -9.21875 7.710938 -8.859375 7.921875 -8.359375 C 8.128906 -7.867188 8.234375 -7.207031 8.234375 -6.375 L 8.234375 -0.84375 L 9.25 -0.84375 L 9.25 -0.09375 C 9.019531 -0.03125 8.726562 0.0234375 8.375 0.078125 C 8.019531 0.140625 7.710938 0.171875 7.453125 0.171875 C 7.128906 0.171875 6.910156 0.117188 6.796875 0.015625 C 6.679688 -0.078125 6.625 -0.289062 6.625 -0.625 L 6.625 -1.1875 C 6.28125 -0.84375 5.859375 -0.523438 5.359375 -0.234375 C 4.859375 0.046875 4.289062 0.1875 3.65625 0.1875 C 2.832031 0.1875 2.144531 -0.046875 1.59375 -0.515625 C 1.050781 -0.992188 0.78125 -1.6875 0.78125 -2.59375 Z M 4.40625 -0.984375 C 4.695312 -0.984375 5.035156 -1.070312 5.421875 -1.25 C 5.816406 -1.4375 6.175781 -1.660156 6.5 -1.921875 L 6.5 -4.875 C 5.25 -4.875 4.300781 -4.679688 3.65625 -4.296875 C 3.019531 -3.910156 2.703125 -3.410156 2.703125 -2.796875 C 2.703125 -2.171875 2.851562 -1.710938 3.15625 -1.421875 C 3.46875 -1.128906 3.882812 -0.984375 4.40625 -0.984375 Z M 4.40625 -0.984375 "/></g></g></g><path stroke-linecap="butt" transform="matrix(0.74888, 0.00403169, -0.00403169, 0.74888, 29.804568, 34.106747)" fill="none" stroke-linejoin="miter" d="M -0.0023692 0.499053 L 371.500517 0.502013 " stroke="#ffffff" stroke-width="1" stroke-opacity="1" stroke-miterlimit="4"/></svg>